<svg width="202" height="64" viewBox="0 0 202 64" fill="none" xmlns="http://www.w3.org/2000/svg">
<path fill-rule="evenodd" clip-rule="evenodd" d="M16.5572 29.2212C16.7268 28.3297 16.5354 27.4073 16.025 26.6569C15.5146 25.9066 14.727 25.3897 13.8355 25.22C13.3941 25.136 12.9405 25.1397 12.5005 25.231C12.0605 25.3224 11.6428 25.4994 11.2713 25.7522C10.5209 26.2626 10.004 27.0501 9.83436 27.9416V27.9485L9.83094 27.9587L9.82752 27.9793L9.81725 28.0374C9.77433 28.2697 9.74122 28.5037 9.71804 28.7388C9.6576 29.3138 9.63132 29.8919 9.63935 30.47C9.65645 31.8385 9.86857 33.7989 10.7889 35.7421C11.7092 37.6786 13.0709 39.0779 14.1075 39.9537C14.7262 40.4738 15.3878 40.9408 16.085 41.3496L16.1364 41.3804L16.1569 41.3907L16.1671 41.3941C16.1706 41.3975 16.174 41.4009 17.7957 38.3834L16.174 41.3975C16.9697 41.8145 17.8975 41.9017 18.7571 41.6404C19.6166 41.3791 20.3388 40.7902 20.7678 40.0009C21.1969 39.2116 21.2982 38.2852 21.05 37.4218C20.8018 36.5584 20.224 35.8273 19.4413 35.3863L19.4174 35.3726C19.103 35.1783 18.8034 34.961 18.521 34.7226C17.8782 34.2009 17.3514 33.5507 16.9746 32.8135C16.6418 32.0473 16.474 31.2197 16.4819 30.3844C16.4771 30.0058 16.5 29.6273 16.5503 29.252L16.5572 29.2212Z" fill="black"/>
<path fill-rule="evenodd" clip-rule="evenodd" d="M35.6034 9.44272C34.3376 8.79268 34.0023 7.93736 34.0981 7.00335C34.1904 6.14119 34.6523 5.20718 35.1039 4.29712L35.3503 3.79762C36.0961 2.25804 36.599 0.834791 34.9294 0C32.9662 0.21684 31.0181 0.553898 29.0962 1.00928C15.0176 4.36555 6.06756 13.4525 2.71814 19.9324C0.504568 24.2211 -0.387614 29.0699 0.154398 33.8657C0.69641 38.6615 2.64828 43.1889 5.7632 46.8755C8.87812 50.562 13.0162 53.2422 17.6543 54.5771C22.2923 55.9119 27.222 55.8416 31.8201 54.3749C36.4182 52.9082 40.4781 50.1111 43.4866 46.3372C46.4951 42.5632 48.3169 37.982 48.7219 33.1727C49.1268 28.3634 48.0967 23.542 45.7616 19.3181C43.4266 15.0943 39.8915 11.6576 35.6034 9.44272ZM27.3376 8.62162C17.262 12.0018 11.0421 18.7315 8.80116 23.0731C7.20829 26.1595 6.56639 29.649 6.95664 33.1002C7.34689 36.5514 8.75176 39.8094 10.9936 42.4623C13.2354 45.1151 16.2136 47.0436 19.5514 48.0039C22.8892 48.9641 26.4369 48.9131 29.7457 47.8572C33.0545 46.8013 35.976 44.788 38.1406 42.0718C40.3052 39.3556 41.6158 36.0585 41.9066 32.5975C42.1974 29.1364 41.4554 25.6669 39.7744 22.6276C38.0934 19.5882 35.5489 17.1156 32.4627 15.5223C30.9029 14.743 29.5791 13.5621 28.6275 12.1011C27.9541 11.0463 27.5132 9.86014 27.3342 8.62162H27.3376Z" fill="black"/>
<path d="M66.2147 45C65.2037 45 64.6982 44.4584 64.6982 43.3751V15.5566C64.6982 14.4734 65.2037 13.9317 66.2147 13.9317H83.3521C84.4354 13.9317 84.977 14.4011 84.977 15.34V17.8965C84.977 18.8353 84.4354 19.3048 83.3521 19.3048H71.0245V26.8443H81.5756C82.6588 26.8443 83.2005 27.3138 83.2005 28.2526V30.8091C83.2005 31.748 82.6588 32.2174 81.5756 32.2174H71.0245V43.3751C71.0245 44.4584 70.5189 45 69.5079 45H66.2147ZM90.9567 45C90.0901 45 89.6568 44.5667 89.6568 43.7001V23.5512C89.6568 22.6846 90.0901 22.2513 90.9567 22.2513H94.3798C95.2465 22.2513 95.6798 22.6846 95.6798 23.5512V25.3278H95.7664C96.142 24.4034 96.7703 23.5873 97.6513 22.8796C98.5324 22.1718 99.5723 21.818 100.771 21.818C101.594 21.818 102.273 21.9191 102.808 22.1213C103.313 22.309 103.508 22.6557 103.393 23.1612L102.786 25.7394C102.656 26.3172 102.266 26.4905 101.616 26.2594C101.241 26.1294 100.879 26.0644 100.533 26.0644C99.1462 26.0644 97.998 26.8949 97.088 28.5559C96.1781 30.2169 95.7231 32.6362 95.7231 35.8138V43.7001C95.7231 44.5667 95.2898 45 94.4232 45H90.9567ZM105.473 33.6256C105.473 29.9714 106.383 27.0899 108.202 24.9811C110.037 22.8723 112.622 21.818 115.959 21.818C119.83 21.818 122.704 22.8146 124.581 24.8078C126.459 26.801 127.398 30.0075 127.398 34.4273C127.398 35.2939 126.994 35.7272 126.185 35.7272H111.886C112.117 38.1248 112.709 39.6342 113.662 40.2553C114.615 40.8763 115.72 41.1869 116.977 41.1869C118.176 41.1869 119.093 41.028 119.728 40.7102C120.364 40.3925 120.898 39.9592 121.332 39.4103C121.823 38.7748 122.429 38.6737 123.152 39.107L125.318 40.4286C126.17 40.9486 126.293 41.5696 125.686 42.2918C124.805 43.3462 123.773 44.1334 122.588 44.6534C121.404 45.1733 119.533 45.4333 116.977 45.4333C112.832 45.4333 109.878 44.3789 108.116 42.2702C106.354 40.1614 105.473 37.2799 105.473 33.6256ZM111.907 31.3941H121.332C121.332 29.8342 120.942 28.5631 120.162 27.581C119.382 26.5844 118.14 26.0861 116.435 26.0861C115.078 26.0861 114.002 26.5627 113.207 27.516C112.413 28.4548 111.979 29.7475 111.907 31.3941ZM131.666 43.4834C130.958 42.9779 130.763 42.4363 131.081 41.8585L132.186 39.8436C132.576 39.1214 133.183 39.0348 134.006 39.5836C134.829 40.1325 135.797 40.5369 136.909 40.7969C138.036 41.0569 139.061 41.1869 139.986 41.1869C140.636 41.1869 141.242 41.1219 141.806 40.9919C142.369 40.8619 142.845 40.6091 143.235 40.2336C143.625 39.8581 143.82 39.3092 143.82 38.587C143.82 38.1537 143.705 37.7854 143.474 37.4821C143.243 37.1788 142.947 36.9477 142.585 36.7888C142.224 36.6299 141.842 36.4999 141.437 36.3988C140.903 36.2688 140.13 36.0522 139.119 35.7488C138.122 35.4455 137.162 35.0917 136.238 34.6872C135.472 34.355 134.721 33.8928 133.984 33.3007C133.262 32.694 132.728 32.0224 132.381 31.2858C132.049 30.5491 131.883 29.6392 131.883 28.5559C131.883 27.0971 132.302 25.8188 133.139 24.7211C133.992 23.6234 135.089 22.8651 136.432 22.4463C137.776 22.0274 139.451 21.818 141.459 21.818C142.817 21.818 144.138 22.0129 145.424 22.4029C146.709 22.7929 147.626 23.1612 148.175 23.5079C149.042 24.0567 149.258 24.6417 148.825 25.2628L147.504 27.191C147.099 27.7687 146.449 27.8121 145.554 27.321C144.875 26.9455 144.203 26.6421 143.539 26.411C142.889 26.1799 142.159 26.0644 141.351 26.0644C140.802 26.0644 140.275 26.1222 139.769 26.2377C139.263 26.3533 138.83 26.5699 138.469 26.8877C138.122 27.2054 137.949 27.6243 137.949 28.1443C137.949 28.6931 138.108 29.1264 138.426 29.4442C138.758 29.7475 139.133 29.9714 139.552 30.1158C139.986 30.2603 140.397 30.3975 140.787 30.5275C141.596 30.7875 142.412 31.0402 143.235 31.2858C144.059 31.5169 144.896 31.7985 145.749 32.1307C146.485 32.4196 147.2 32.8312 147.894 33.3656C148.587 33.9001 149.092 34.5789 149.41 35.4022C149.728 36.2255 149.887 37.1643 149.887 38.2187C149.887 39.6197 149.468 40.9197 148.63 42.1185C147.792 43.3173 146.687 44.1695 145.315 44.675C143.943 45.1805 142.347 45.4333 140.527 45.4333C138.491 45.4333 136.757 45.2889 135.328 45C133.898 44.7111 132.677 44.2056 131.666 43.4834ZM152.703 33.6256C152.703 29.9425 153.628 27.0538 155.476 24.9594C157.325 22.8651 160.163 21.818 163.991 21.818C166.23 21.818 167.97 22.1141 169.212 22.7062C170.454 23.2984 171.451 24.165 172.202 25.3061C172.65 25.9849 172.578 26.5194 171.986 26.9093L169.689 28.4259C169.039 28.8592 168.468 28.6931 167.977 27.9276C167.732 27.5521 167.262 27.1477 166.569 26.7144C165.876 26.281 165.016 26.0644 163.991 26.0644C162.359 26.0644 161.138 26.6421 160.33 27.7976C159.521 28.9387 159.116 30.8813 159.116 33.6256C159.116 36.3699 159.521 38.3198 160.33 39.4753C161.138 40.6164 162.359 41.1869 163.991 41.1869C165.161 41.1869 166.107 40.9413 166.829 40.4503C167.551 39.9592 168.23 39.3236 168.866 38.5437C169.415 37.8793 169.992 37.7854 170.599 38.262L172.614 39.8436C173.22 40.3203 173.257 40.9558 172.722 41.7502C172.159 42.5879 171.198 43.4112 169.841 44.22C168.497 45.0289 166.547 45.4333 163.991 45.4333C160.163 45.4333 157.325 44.3861 155.476 42.2918C153.628 40.1975 152.703 37.3088 152.703 33.6256ZM176.232 33.6256C176.232 29.9425 177.178 27.0538 179.07 24.9594C180.977 22.8651 183.808 21.818 187.563 21.818C191.318 21.818 194.142 22.8651 196.034 24.9594C197.941 27.0538 198.894 29.9425 198.894 33.6256C198.894 37.3088 197.941 40.1975 196.034 42.2918C194.142 44.3861 191.318 45.4333 187.563 45.4333C183.808 45.4333 180.977 44.3861 179.07 42.2918C177.178 40.1975 176.232 37.3088 176.232 33.6256ZM182.645 33.6256C182.645 36.3699 183.064 38.3198 183.902 39.4753C184.754 40.6164 185.974 41.1869 187.563 41.1869C189.152 41.1869 190.365 40.6164 191.203 39.4753C192.055 38.3198 192.481 36.3699 192.481 33.6256C192.481 30.8813 192.055 28.9387 191.203 27.7976C190.365 26.6421 189.152 26.0644 187.563 26.0644C185.974 26.0644 184.754 26.6421 183.902 27.7976C183.064 28.9387 182.645 30.8813 182.645 33.6256Z" fill="black"/>
</svg>
